<?xml version="1.0" encoding="utf-8"?>
<!-- Generator: Adobe Illustrator 26.2.1, SVG Export Plug-In . SVG Version: 6.00 Build 0)  -->
<svg version="1.1" id="svgContainer" xmlns="http://www.w3.org/2000/svg" xmlns:xlink="http://www.w3.org/1999/xlink" x="0px"
	 y="0px" viewBox="0 0 4644 4008" style="enable-background:new 0 0 4644 4008;" xml:space="preserve">
<style type="text/css">
	.st0{fill:#FFFFFF;}
	.st1{fill:#569F10;}
	.st2{fill:#532111;}
	.st3{fill:#0E009C;}
	.st4{fill:#4F1C0C;}
	.st5{fill:#120C4F;}
	.st6{fill:#9E2C08;}
	.st7{fill:#9C2703;}
	.st8{fill:#76B937;}
	.st9{fill:#559E0E;}
	.st10{fill:#70B62E;}
	.st11{fill:#150F51;}
	.st12{fill:#73B732;}
	.st13{fill:#519C09;}
	.st14{fill:#13059D;}
	.st15{fill:#4F9C06;}
	.st16{fill:#72B630;}
	.st17{fill:#542314;}
	.st18{fill:#58A013;}
	.st19{fill:#539D0B;}
	.st20{fill:#9D2905;}
	.st21{fill:#75B834;}
	.st22{fill:#11039C;}
	.st23{fill:#171153;}
	.st24{fill:#511F0F;}
	.st25{fill:#9C2500;}
	.st26{fill:#15089E;}
	.st27{fill:#1A1454;}
	.st28{fill:#6FB52C;}
</style>
<g>
	<g>
		<g>
			<path class="st0" d="M525-31c93.3-138,169-62.3,31,31c138,93.3,62.3,169-31,31c-93.3,138-169,62.3-31-31
				C356-93.3,431.7-169,525-31z"/>
		</g>
		<g>
			<path class="st1" d="M450,338c186.7-276,338-124.7,62,62c276,186.7,124.7,338-62,62c-186.7,276-338,124.7-62-62
				C112,213.3,263.3,62,450,338z"/>
		</g>
		<g>
			<path class="st0" d="M525,769c93.3-138,169-62.3,31,31c138,93.3,62.3,169-31,31c-93.3,138-169,62.3-31-31
				C356,706.7,431.7,631,525,769z"/>
		</g>
		<g>
			<path class="st2" d="M450,1138c186.7-276,338-124.7,62,62c276,186.7,124.7,338-62,62c-186.7,276-338,124.7-62-62
				C112,1013.3,263.3,862,450,1138z"/>
		</g>
		<g>
			<path class="st0" d="M525,1569c93.3-138,169-62.3,31,31c138,93.3,62.3,169-31,31c-93.3,138-169,62.3-31-31
				C356,1506.7,431.7,1431,525,1569z"/>
		</g>
		<g>
			<path class="st3" d="M450,1938c186.7-276,338-124.7,62,62c276,186.7,124.7,338-62,62c-186.7,276-338,124.7-62-62
				C112,1813.3,263.3,1662,450,1938z"/>
		</g>
		<g>
			<path class="st0" d="M525,2369c93.3-138,169-62.3,31,31c138,93.3,62.3,169-31,31c-93.3,138-169,62.3-31-31
				C356,2306.7,431.7,2231,525,2369z"/>
		</g>
		<g>
			<path class="st4" d="M450,2738c186.7-276,338-124.7,62,62c276,186.7,124.7,338-62,62c-186.7,276-338,124.7-62-62
				C112,2613.3,263.3,2462,450,2738z"/>
		</g>
		<g>
			<path class="st0" d="M525,3169c93.3-138,169-62.3,31,31c138,93.3,62.3,169-31,31c-93.3,138-169,62.3-31-31
				C356,3106.7,431.7,3031,525,3169z"/>
		</g>
		<g>
			<path class="st5" d="M450,3538c186.7-276,338-124.7,62,62c276,186.7,124.7,338-62,62c-186.7,276-338,124.7-62-62
				C112,3413.3,263.3,3262,450,3538z"/>
		</g>
		<g>
			<path class="st0" d="M525,3969c93.3-138,169-62.3,31,31c138,93.3,62.3,169-31,31c-93.3,138-169,62.3-31-31
				C356,3906.7,431.7,3831,525,3969z"/>
		</g>
		<g>
			<path class="st6" d="M450,4338c186.7-276,338-124.7,62,62c276,186.7,124.7,338-62,62c-186.7,276-338,124.7-62-62
				C112,4213.3,263.3,4062,450,4338z"/>
		</g>
		<g>
			<path class="st0" d="M525,4769c93.3-138,169-62.3,31,31c138,93.3,62.3,169-31,31c-93.3,138-169,62.3-31-31
				C356,4706.7,431.7,4631,525,4769z"/>
		</g>
		<g>
			<path class="st7" d="M450,5138c186.7-276,338-124.7,62,62c276,186.7,124.7,338-62,62c-186.7,276-338,124.7-62-62
				C112,5013.3,263.3,4862,450,5138z"/>
		</g>
		<g>
			<path class="st0" d="M525,5569c93.3-138,169-62.3,31,31c138,93.3,62.3,169-31,31c-93.3,138-169,62.3-31-31
				C356,5506.7,431.7,5431,525,5569z"/>
		</g>
		<g>
			<path class="st8" d="M450,5938c186.7-276,338-124.7,62,62c276,186.7,124.7,338-62,62c-186.7,276-338,124.7-62-62
				C112,5813.3,263.3,5662,450,5938z"/>
		</g>
		<g>
			<path class="st0" d="M525,6369c93.3-138,169-62.3,31,31c138,93.3,62.3,169-31,31c-93.3,138-169,62.3-31-31
				C356,6306.7,431.7,6231,525,6369z"/>
		</g>
		<g>
			<path class="st5" d="M450,6738c186.7-276,338-124.7,62,62c276,186.7,124.7,338-62,62c-186.7,276-338,124.7-62-62
				C112,6613.3,263.3,6462,450,6738z"/>
		</g>
		<g>
			<path class="st0" d="M525,7169c93.3-138,169-62.3,31,31c138,93.3,62.3,169-31,31c-93.3,138-169,62.3-31-31
				C356,7106.7,431.7,7031,525,7169z"/>
		</g>
		<g>
			<path class="st9" d="M450,7538c186.7-276,338-124.7,62,62c276,186.7,124.7,338-62,62c-186.7,276-338,124.7-62-62
				C112,7413.3,263.3,7262,450,7538z"/>
		</g>
		<g>
			<path class="st0" d="M950-31c93.3-138,169-62.3,31,31c138,93.3,62.3,169-31,31c-93.3,138-169,62.3-31-31
				C781-93.3,856.7-169,950-31z"/>
		</g>
		<g>
			<path class="st10" d="M900,338c186.7-276,338-124.7,62,62c276,186.7,124.7,338-62,62c-186.7,276-338,124.7-62-62
				C562,213.3,713.3,62,900,338z"/>
		</g>
		<g>
			<path class="st0" d="M950,769c93.3-138,169-62.3,31,31c138,93.3,62.3,169-31,31c-93.3,138-169,62.3-31-31
				C781,706.7,856.7,631,950,769z"/>
		</g>
		<g>
			<path class="st9" d="M900,1138c186.7-276,338-124.7,62,62c276,186.7,124.7,338-62,62c-186.7,276-338,124.7-62-62
				C562,1013.3,713.3,862,900,1138z"/>
		</g>
		<g>
			<path class="st0" d="M950,1569c93.3-138,169-62.3,31,31c138,93.3,62.3,169-31,31c-93.3,138-169,62.3-31-31
				C781,1506.7,856.7,1431,950,1569z"/>
		</g>
		<g>
			<path class="st11" d="M900,1938c186.7-276,338-124.7,62,62c276,186.7,124.7,338-62,62c-186.7,276-338,124.7-62-62
				C562,1813.3,713.3,1662,900,1938z"/>
		</g>
		<g>
			<path class="st0" d="M950,2369c93.3-138,169-62.3,31,31c138,93.3,62.3,169-31,31c-93.3,138-169,62.3-31-31
				C781,2306.7,856.7,2231,950,2369z"/>
		</g>
		<g>
			<path class="st7" d="M900,2738c186.7-276,338-124.7,62,62c276,186.7,124.7,338-62,62c-186.7,276-338,124.7-62-62
				C562,2613.3,713.3,2462,900,2738z"/>
		</g>
		<g>
			<path class="st0" d="M950,3169c93.3-138,169-62.3,31,31c138,93.3,62.3,169-31,31c-93.3,138-169,62.3-31-31
				C781,3106.7,856.7,3031,950,3169z"/>
		</g>
		<g>
			<path class="st12" d="M900,3538c186.7-276,338-124.7,62,62c276,186.7,124.7,338-62,62c-186.7,276-338,124.7-62-62
				C562,3413.3,713.3,3262,900,3538z"/>
		</g>
		<g>
			<path class="st0" d="M950,3969c93.3-138,169-62.3,31,31c138,93.3,62.3,169-31,31c-93.3,138-169,62.3-31-31
				C781,3906.7,856.7,3831,950,3969z"/>
		</g>
		<g>
			<path class="st13" d="M900,4338c186.7-276,338-124.7,62,62c276,186.7,124.7,338-62,62c-186.7,276-338,124.7-62-62
				C562,4213.3,713.3,4062,900,4338z"/>
		</g>
		<g>
			<path class="st0" d="M950,4769c93.3-138,169-62.3,31,31c138,93.3,62.3,169-31,31c-93.3,138-169,62.3-31-31
				C781,4706.7,856.7,4631,950,4769z"/>
		</g>
		<g>
			<path class="st1" d="M900,5138c186.7-276,338-124.7,62,62c276,186.7,124.7,338-62,62c-186.7,276-338,124.7-62-62
				C562,5013.3,713.3,4862,900,5138z"/>
		</g>
		<g>
			<path class="st0" d="M950,5569c93.3-138,169-62.3,31,31c138,93.3,62.3,169-31,31c-93.3,138-169,62.3-31-31
				C781,5506.7,856.7,5431,950,5569z"/>
		</g>
		<g>
			<path class="st14" d="M900,5938c186.7-276,338-124.7,62,62c276,186.7,124.7,338-62,62c-186.7,276-338,124.7-62-62
				C562,5813.3,713.3,5662,900,5938z"/>
		</g>
		<g>
			<path class="st0" d="M950,6369c93.3-138,169-62.3,31,31c138,93.3,62.3,169-31,31c-93.3,138-169,62.3-31-31
				C781,6306.7,856.7,6231,950,6369z"/>
		</g>
		<g>
			<path class="st9" d="M900,6738c186.7-276,338-124.7,62,62c276,186.7,124.7,338-62,62c-186.7,276-338,124.7-62-62
				C562,6613.3,713.3,6462,900,6738z"/>
		</g>
		<g>
			<path class="st0" d="M950,7169c93.3-138,169-62.3,31,31c138,93.3,62.3,169-31,31c-93.3,138-169,62.3-31-31
				C781,7106.7,856.7,7031,950,7169z"/>
		</g>
		<g>
			<path class="st2" d="M900,7538c186.7-276,338-124.7,62,62c276,186.7,124.7,338-62,62c-186.7,276-338,124.7-62-62
				C562,7413.3,713.3,7262,900,7538z"/>
		</g>
		<g>
			<path class="st0" d="M1375-31c93.3-138,169-62.3,31,31c138,93.3,62.3,169-31,31c-93.3,138-169,62.3-31-31
				C1206-93.3,1281.7-169,1375-31z"/>
		</g>
		<g>
			<path class="st1" d="M1350,338c186.7-276,338-124.7,62,62c276,186.7,124.7,338-62,62c-186.7,276-338,124.7-62-62
				C1012,213.3,1163.3,62,1350,338z"/>
		</g>
		<g>
			<path class="st0" d="M1375,769c93.3-138,169-62.3,31,31c138,93.3,62.3,169-31,31c-93.3,138-169,62.3-31-31
				C1206,706.7,1281.7,631,1375,769z"/>
		</g>
		<g>
			<path class="st15" d="M1350,1138c186.7-276,338-124.7,62,62c276,186.7,124.7,338-62,62c-186.7,276-338,124.7-62-62
				C1012,1013.3,1163.3,862,1350,1138z"/>
		</g>
		<g>
			<path class="st0" d="M1375,1569c93.3-138,169-62.3,31,31c138,93.3,62.3,169-31,31c-93.3,138-169,62.3-31-31
				C1206,1506.7,1281.7,1431,1375,1569z"/>
		</g>
		<g>
			<path class="st14" d="M1350,1938c186.7-276,338-124.7,62,62c276,186.7,124.7,338-62,62c-186.7,276-338,124.7-62-62
				C1012,1813.3,1163.3,1662,1350,1938z"/>
		</g>
		<g>
			<path class="st0" d="M1375,2369c93.3-138,169-62.3,31,31c138,93.3,62.3,169-31,31c-93.3,138-169,62.3-31-31
				C1206,2306.7,1281.7,2231,1375,2369z"/>
		</g>
		<g>
			<path class="st16" d="M1350,2738c186.7-276,338-124.7,62,62c276,186.7,124.7,338-62,62c-186.7,276-338,124.7-62-62
				C1012,2613.3,1163.3,2462,1350,2738z"/>
		</g>
		<g>
			<path class="st0" d="M1375,3169c93.3-138,169-62.3,31,31c138,93.3,62.3,169-31,31c-93.3,138-169,62.3-31-31
				C1206,3106.7,1281.7,3031,1375,3169z"/>
		</g>
		<g>
			<path class="st16" d="M1350,3538c186.7-276,338-124.7,62,62c276,186.7,124.7,338-62,62c-186.7,276-338,124.7-62-62
				C1012,3413.3,1163.3,3262,1350,3538z"/>
		</g>
		<g>
			<path class="st0" d="M1375,3969c93.3-138,169-62.3,31,31c138,93.3,62.3,169-31,31c-93.3,138-169,62.3-31-31
				C1206,3906.7,1281.7,3831,1375,3969z"/>
		</g>
		<g>
			<path class="st13" d="M1350,4338c186.7-276,338-124.7,62,62c276,186.7,124.7,338-62,62c-186.7,276-338,124.7-62-62
				C1012,4213.3,1163.3,4062,1350,4338z"/>
		</g>
		<g>
			<path class="st0" d="M1375,4769c93.3-138,169-62.3,31,31c138,93.3,62.3,169-31,31c-93.3,138-169,62.3-31-31
				C1206,4706.7,1281.7,4631,1375,4769z"/>
		</g>
		<g>
			<path class="st7" d="M1350,5138c186.7-276,338-124.7,62,62c276,186.7,124.7,338-62,62c-186.7,276-338,124.7-62-62
				C1012,5013.3,1163.3,4862,1350,5138z"/>
		</g>
		<g>
			<path class="st0" d="M1375,5569c93.3-138,169-62.3,31,31c138,93.3,62.3,169-31,31c-93.3,138-169,62.3-31-31
				C1206,5506.7,1281.7,5431,1375,5569z"/>
		</g>
		<g>
			<path class="st9" d="M1350,5938c186.7-276,338-124.7,62,62c276,186.7,124.7,338-62,62c-186.7,276-338,124.7-62-62
				C1012,5813.3,1163.3,5662,1350,5938z"/>
		</g>
		<g>
			<path class="st0" d="M1375,6369c93.3-138,169-62.3,31,31c138,93.3,62.3,169-31,31c-93.3,138-169,62.3-31-31
				C1206,6306.7,1281.7,6231,1375,6369z"/>
		</g>
		<g>
			<path class="st10" d="M1350,6738c186.7-276,338-124.7,62,62c276,186.7,124.7,338-62,62c-186.7,276-338,124.7-62-62
				C1012,6613.3,1163.3,6462,1350,6738z"/>
		</g>
		<g>
			<path class="st0" d="M1375,7169c93.3-138,169-62.3,31,31c138,93.3,62.3,169-31,31c-93.3,138-169,62.3-31-31
				C1206,7106.7,1281.7,7031,1375,7169z"/>
		</g>
		<g>
			<path class="st5" d="M1350,7538c186.7-276,338-124.7,62,62c276,186.7,124.7,338-62,62c-186.7,276-338,124.7-62-62
				C1012,7413.3,1163.3,7262,1350,7538z"/>
		</g>
		<g>
			<path class="st0" d="M1800-31c93.3-138,169-62.3,31,31c138,93.3,62.3,169-31,31c-93.3,138-169,62.3-31-31
				C1631-93.3,1706.7-169,1800-31z"/>
		</g>
		<g>
			<path class="st17" d="M1800,338c186.7-276,338-124.7,62,62c276,186.7,124.7,338-62,62c-186.7,276-338,124.7-62-62
				C1462,213.3,1613.3,62,1800,338z"/>
		</g>
		<g>
			<path class="st0" d="M1800,769c93.3-138,169-62.3,31,31c138,93.3,62.3,169-31,31c-93.3,138-169,62.3-31-31
				C1631,706.7,1706.7,631,1800,769z"/>
		</g>
		<g>
			<path class="st18" d="M1800,1138c186.7-276,338-124.7,62,62c276,186.7,124.7,338-62,62c-186.7,276-338,124.7-62-62
				C1462,1013.3,1613.3,862,1800,1138z"/>
		</g>
		<g>
			<path class="st0" d="M1800,1569c93.3-138,169-62.3,31,31c138,93.3,62.3,169-31,31c-93.3,138-169,62.3-31-31
				C1631,1506.7,1706.7,1431,1800,1569z"/>
		</g>
		<g>
			<path class="st12" d="M1800,1938c186.7-276,338-124.7,62,62c276,186.7,124.7,338-62,62c-186.7,276-338,124.7-62-62
				C1462,1813.3,1613.3,1662,1800,1938z"/>
		</g>
		<g>
			<path class="st0" d="M1800,2369c93.3-138,169-62.3,31,31c138,93.3,62.3,169-31,31c-93.3,138-169,62.3-31-31
				C1631,2306.7,1706.7,2231,1800,2369z"/>
		</g>
		<g>
			<path class="st16" d="M1800,2738c186.7-276,338-124.7,62,62c276,186.7,124.7,338-62,62c-186.7,276-338,124.7-62-62
				C1462,2613.3,1613.3,2462,1800,2738z"/>
		</g>
		<g>
			<path class="st0" d="M1800,3169c93.3-138,169-62.3,31,31c138,93.3,62.3,169-31,31c-93.3,138-169,62.3-31-31
				C1631,3106.7,1706.7,3031,1800,3169z"/>
		</g>
		<g>
			<path class="st7" d="M1800,3538c186.7-276,338-124.7,62,62c276,186.7,124.7,338-62,62c-186.7,276-338,124.7-62-62
				C1462,3413.3,1613.3,3262,1800,3538z"/>
		</g>
		<g>
			<path class="st0" d="M1800,3969c93.3-138,169-62.3,31,31c138,93.3,62.3,169-31,31c-93.3,138-169,62.3-31-31
				C1631,3906.7,1706.7,3831,1800,3969z"/>
		</g>
		<g>
			<path class="st19" d="M1800,4338c186.7-276,338-124.7,62,62c276,186.7,124.7,338-62,62c-186.7,276-338,124.7-62-62
				C1462,4213.3,1613.3,4062,1800,4338z"/>
		</g>
		<g>
			<path class="st0" d="M1800,4769c93.3-138,169-62.3,31,31c138,93.3,62.3,169-31,31c-93.3,138-169,62.3-31-31
				C1631,4706.7,1706.7,4631,1800,4769z"/>
		</g>
		<g>
			<path class="st3" d="M1800,5138c186.7-276,338-124.7,62,62c276,186.7,124.7,338-62,62c-186.7,276-338,124.7-62-62
				C1462,5013.3,1613.3,4862,1800,5138z"/>
		</g>
		<g>
			<path class="st0" d="M1800,5569c93.3-138,169-62.3,31,31c138,93.3,62.3,169-31,31c-93.3,138-169,62.3-31-31
				C1631,5506.7,1706.7,5431,1800,5569z"/>
		</g>
		<g>
			<path class="st5" d="M1800,5938c186.7-276,338-124.7,62,62c276,186.7,124.7,338-62,62c-186.7,276-338,124.7-62-62
				C1462,5813.3,1613.3,5662,1800,5938z"/>
		</g>
		<g>
			<path class="st0" d="M1800,6369c93.3-138,169-62.3,31,31c138,93.3,62.3,169-31,31c-93.3,138-169,62.3-31-31
				C1631,6306.7,1706.7,6231,1800,6369z"/>
		</g>
		<g>
			<path class="st20" d="M1800,6738c186.7-276,338-124.7,62,62c276,186.7,124.7,338-62,62c-186.7,276-338,124.7-62-62
				C1462,6613.3,1613.3,6462,1800,6738z"/>
		</g>
		<g>
			<path class="st0" d="M1800,7169c93.3-138,169-62.3,31,31c138,93.3,62.3,169-31,31c-93.3,138-169,62.3-31-31
				C1631,7106.7,1706.7,7031,1800,7169z"/>
		</g>
		<g>
			<path class="st21" d="M1800,7538c186.7-276,338-124.7,62,62c276,186.7,124.7,338-62,62c-186.7,276-338,124.7-62-62
				C1462,7413.3,1613.3,7262,1800,7538z"/>
		</g>
		<g>
			<path class="st0" d="M2225-31c93.3-138,169-62.3,31,31c138,93.3,62.3,169-31,31c-93.3,138-169,62.3-31-31
				C2056-93.3,2131.7-169,2225-31z"/>
		</g>
		<g>
			<path class="st16" d="M2250,338c186.7-276,338-124.7,62,62c276,186.7,124.7,338-62,62c-186.7,276-338,124.7-62-62
				C1912,213.3,2063.3,62,2250,338z"/>
		</g>
		<g>
			<path class="st0" d="M2225,769c93.3-138,169-62.3,31,31c138,93.3,62.3,169-31,31c-93.3,138-169,62.3-31-31
				C2056,706.7,2131.7,631,2225,769z"/>
		</g>
		<g>
			<path class="st22" d="M2250,1138c186.7-276,338-124.7,62,62c276,186.7,124.7,338-62,62c-186.7,276-338,124.7-62-62
				C1912,1013.3,2063.3,862,2250,1138z"/>
		</g>
		<g>
			<path class="st0" d="M2225,1569c93.3-138,169-62.3,31,31c138,93.3,62.3,169-31,31c-93.3,138-169,62.3-31-31
				C2056,1506.7,2131.7,1431,2225,1569z"/>
		</g>
		<g>
			<path class="st16" d="M2250,1938c186.7-276,338-124.7,62,62c276,186.7,124.7,338-62,62c-186.7,276-338,124.7-62-62
				C1912,1813.3,2063.3,1662,2250,1938z"/>
		</g>
		<g>
			<path class="st0" d="M2225,2369c93.3-138,169-62.3,31,31c138,93.3,62.3,169-31,31c-93.3,138-169,62.3-31-31
				C2056,2306.7,2131.7,2231,2225,2369z"/>
		</g>
		<g>
			<path class="st23" d="M2250,2738c186.7-276,338-124.7,62,62c276,186.7,124.7,338-62,62c-186.7,276-338,124.7-62-62
				C1912,2613.3,2063.3,2462,2250,2738z"/>
		</g>
		<g>
			<path class="st0" d="M2225,3169c93.3-138,169-62.3,31,31c138,93.3,62.3,169-31,31c-93.3,138-169,62.3-31-31
				C2056,3106.7,2131.7,3031,2225,3169z"/>
		</g>
		<g>
			<path class="st20" d="M2250,3538c186.7-276,338-124.7,62,62c276,186.7,124.7,338-62,62c-186.7,276-338,124.7-62-62
				C1912,3413.3,2063.3,3262,2250,3538z"/>
		</g>
		<g>
			<path class="st0" d="M2225,3969c93.3-138,169-62.3,31,31c138,93.3,62.3,169-31,31c-93.3,138-169,62.3-31-31
				C2056,3906.7,2131.7,3831,2225,3969z"/>
		</g>
		<g>
			<path class="st13" d="M2250,4338c186.7-276,338-124.7,62,62c276,186.7,124.7,338-62,62c-186.7,276-338,124.7-62-62
				C1912,4213.3,2063.3,4062,2250,4338z"/>
		</g>
		<g>
			<path class="st0" d="M2225,4769c93.3-138,169-62.3,31,31c138,93.3,62.3,169-31,31c-93.3,138-169,62.3-31-31
				C2056,4706.7,2131.7,4631,2225,4769z"/>
		</g>
		<g>
			<path class="st11" d="M2250,5138c186.7-276,338-124.7,62,62c276,186.7,124.7,338-62,62c-186.7,276-338,124.7-62-62
				C1912,5013.3,2063.3,4862,2250,5138z"/>
		</g>
		<g>
			<path class="st0" d="M2225,5569c93.3-138,169-62.3,31,31c138,93.3,62.3,169-31,31c-93.3,138-169,62.3-31-31
				C2056,5506.7,2131.7,5431,2225,5569z"/>
		</g>
		<g>
			<path class="st3" d="M2250,5938c186.7-276,338-124.7,62,62c276,186.7,124.7,338-62,62c-186.7,276-338,124.7-62-62
				C1912,5813.3,2063.3,5662,2250,5938z"/>
		</g>
		<g>
			<path class="st0" d="M2225,6369c93.3-138,169-62.3,31,31c138,93.3,62.3,169-31,31c-93.3,138-169,62.3-31-31
				C2056,6306.7,2131.7,6231,2225,6369z"/>
		</g>
		<g>
			<path class="st16" d="M2250,6738c186.7-276,338-124.7,62,62c276,186.7,124.7,338-62,62c-186.7,276-338,124.7-62-62
				C1912,6613.3,2063.3,6462,2250,6738z"/>
		</g>
		<g>
			<path class="st0" d="M2225,7169c93.3-138,169-62.3,31,31c138,93.3,62.3,169-31,31c-93.3,138-169,62.3-31-31
				C2056,7106.7,2131.7,7031,2225,7169z"/>
		</g>
		<g>
			<path class="st2" d="M2250,7538c186.7-276,338-124.7,62,62c276,186.7,124.7,338-62,62c-186.7,276-338,124.7-62-62
				C1912,7413.3,2063.3,7262,2250,7538z"/>
		</g>
		<g>
			<path class="st0" d="M2650-31c93.3-138,169-62.3,31,31c138,93.3,62.3,169-31,31c-93.3,138-169,62.3-31-31
				C2481-93.3,2556.7-169,2650-31z"/>
		</g>
		<g>
			<path class="st22" d="M2700,338c186.7-276,338-124.7,62,62c276,186.7,124.7,338-62,62c-186.7,276-338,124.7-62-62
				C2362,213.3,2513.3,62,2700,338z"/>
		</g>
		<g>
			<path class="st0" d="M2650,769c93.3-138,169-62.3,31,31c138,93.3,62.3,169-31,31c-93.3,138-169,62.3-31-31
				C2481,706.7,2556.7,631,2650,769z"/>
		</g>
		<g>
			<path class="st12" d="M2700,1138c186.7-276,338-124.7,62,62c276,186.7,124.7,338-62,62c-186.7,276-338,124.7-62-62
				C2362,1013.3,2513.3,862,2700,1138z"/>
		</g>
		<g>
			<path class="st0" d="M2650,1569c93.3-138,169-62.3,31,31c138,93.3,62.3,169-31,31c-93.3,138-169,62.3-31-31
				C2481,1506.7,2556.7,1431,2650,1569z"/>
		</g>
		<g>
			<path class="st1" d="M2700,1938c186.7-276,338-124.7,62,62c276,186.7,124.7,338-62,62c-186.7,276-338,124.7-62-62
				C2362,1813.3,2513.3,1662,2700,1938z"/>
		</g>
		<g>
			<path class="st0" d="M2650,2369c93.3-138,169-62.3,31,31c138,93.3,62.3,169-31,31c-93.3,138-169,62.3-31-31
				C2481,2306.7,2556.7,2231,2650,2369z"/>
		</g>
		<g>
			<path class="st24" d="M2700,2738c186.7-276,338-124.7,62,62c276,186.7,124.7,338-62,62c-186.7,276-338,124.7-62-62
				C2362,2613.3,2513.3,2462,2700,2738z"/>
		</g>
		<g>
			<path class="st0" d="M2650,3169c93.3-138,169-62.3,31,31c138,93.3,62.3,169-31,31c-93.3,138-169,62.3-31-31
				C2481,3106.7,2556.7,3031,2650,3169z"/>
		</g>
		<g>
			<path class="st20" d="M2700,3538c186.7-276,338-124.7,62,62c276,186.7,124.7,338-62,62c-186.7,276-338,124.7-62-62
				C2362,3413.3,2513.3,3262,2700,3538z"/>
		</g>
		<g>
			<path class="st0" d="M2650,3969c93.3-138,169-62.3,31,31c138,93.3,62.3,169-31,31c-93.3,138-169,62.3-31-31
				C2481,3906.7,2556.7,3831,2650,3969z"/>
		</g>
		<g>
			<path class="st20" d="M2700,4338c186.7-276,338-124.7,62,62c276,186.7,124.7,338-62,62c-186.7,276-338,124.7-62-62
				C2362,4213.3,2513.3,4062,2700,4338z"/>
		</g>
		<g>
			<path class="st0" d="M2650,4769c93.3-138,169-62.3,31,31c138,93.3,62.3,169-31,31c-93.3,138-169,62.3-31-31
				C2481,4706.7,2556.7,4631,2650,4769z"/>
		</g>
		<g>
			<path class="st23" d="M2700,5138c186.7-276,338-124.7,62,62c276,186.7,124.7,338-62,62c-186.7,276-338,124.7-62-62
				C2362,5013.3,2513.3,4862,2700,5138z"/>
		</g>
		<g>
			<path class="st0" d="M2650,5569c93.3-138,169-62.3,31,31c138,93.3,62.3,169-31,31c-93.3,138-169,62.3-31-31
				C2481,5506.7,2556.7,5431,2650,5569z"/>
		</g>
		<g>
			<path class="st22" d="M2700,5938c186.7-276,338-124.7,62,62c276,186.7,124.7,338-62,62c-186.7,276-338,124.7-62-62
				C2362,5813.3,2513.3,5662,2700,5938z"/>
		</g>
		<g>
			<path class="st0" d="M2650,6369c93.3-138,169-62.3,31,31c138,93.3,62.3,169-31,31c-93.3,138-169,62.3-31-31
				C2481,6306.7,2556.7,6231,2650,6369z"/>
		</g>
		<g>
			<path class="st11" d="M2700,6738c186.7-276,338-124.7,62,62c276,186.7,124.7,338-62,62c-186.7,276-338,124.7-62-62
				C2362,6613.3,2513.3,6462,2700,6738z"/>
		</g>
		<g>
			<path class="st0" d="M2650,7169c93.3-138,169-62.3,31,31c138,93.3,62.3,169-31,31c-93.3,138-169,62.3-31-31
				C2481,7106.7,2556.7,7031,2650,7169z"/>
		</g>
		<g>
			<path class="st25" d="M2700,7538c186.7-276,338-124.7,62,62c276,186.7,124.7,338-62,62c-186.7,276-338,124.7-62-62
				C2362,7413.3,2513.3,7262,2700,7538z"/>
		</g>
		<g>
			<path class="st0" d="M3075-31c93.3-138,169-62.3,31,31c138,93.3,62.3,169-31,31c-93.3,138-169,62.3-31-31
				C2906-93.3,2981.7-169,3075-31z"/>
		</g>
		<g>
			<path class="st2" d="M3150,338c186.7-276,338-124.7,62,62c276,186.7,124.7,338-62,62c-186.7,276-338,124.7-62-62
				C2812,213.3,2963.3,62,3150,338z"/>
		</g>
		<g>
			<path class="st0" d="M3075,769c93.3-138,169-62.3,31,31c138,93.3,62.3,169-31,31c-93.3,138-169,62.3-31-31
				C2906,706.7,2981.7,631,3075,769z"/>
		</g>
		<g>
			<path class="st7" d="M3150,1138c186.7-276,338-124.7,62,62c276,186.7,124.7,338-62,62c-186.7,276-338,124.7-62-62
				C2812,1013.3,2963.3,862,3150,1138z"/>
		</g>
		<g>
			<path class="st0" d="M3075,1569c93.3-138,169-62.3,31,31c138,93.3,62.3,169-31,31c-93.3,138-169,62.3-31-31
				C2906,1506.7,2981.7,1431,3075,1569z"/>
		</g>
		<g>
			<path class="st3" d="M3150,1938c186.7-276,338-124.7,62,62c276,186.7,124.7,338-62,62c-186.7,276-338,124.7-62-62
				C2812,1813.3,2963.3,1662,3150,1938z"/>
		</g>
		<g>
			<path class="st0" d="M3075,2369c93.3-138,169-62.3,31,31c138,93.3,62.3,169-31,31c-93.3,138-169,62.3-31-31
				C2906,2306.7,2981.7,2231,3075,2369z"/>
		</g>
		<g>
			<path class="st14" d="M3150,2738c186.7-276,338-124.7,62,62c276,186.7,124.7,338-62,62c-186.7,276-338,124.7-62-62
				C2812,2613.3,2963.3,2462,3150,2738z"/>
		</g>
		<g>
			<path class="st0" d="M3075,3169c93.3-138,169-62.3,31,31c138,93.3,62.3,169-31,31c-93.3,138-169,62.3-31-31
				C2906,3106.7,2981.7,3031,3075,3169z"/>
		</g>
		<g>
			<path class="st23" d="M3150,3538c186.7-276,338-124.7,62,62c276,186.7,124.7,338-62,62c-186.7,276-338,124.7-62-62
				C2812,3413.3,2963.3,3262,3150,3538z"/>
		</g>
		<g>
			<path class="st0" d="M3075,3969c93.3-138,169-62.3,31,31c138,93.3,62.3,169-31,31c-93.3,138-169,62.3-31-31
				C2906,3906.7,2981.7,3831,3075,3969z"/>
		</g>
		<g>
			<path class="st1" d="M3150,4338c186.7-276,338-124.7,62,62c276,186.7,124.7,338-62,62c-186.7,276-338,124.7-62-62
				C2812,4213.3,2963.3,4062,3150,4338z"/>
		</g>
		<g>
			<path class="st0" d="M3075,4769c93.3-138,169-62.3,31,31c138,93.3,62.3,169-31,31c-93.3,138-169,62.3-31-31
				C2906,4706.7,2981.7,4631,3075,4769z"/>
		</g>
		<g>
			<path class="st3" d="M3150,5138c186.7-276,338-124.7,62,62c276,186.7,124.7,338-62,62c-186.7,276-338,124.7-62-62
				C2812,5013.3,2963.3,4862,3150,5138z"/>
		</g>
		<g>
			<path class="st0" d="M3075,5569c93.3-138,169-62.3,31,31c138,93.3,62.3,169-31,31c-93.3,138-169,62.3-31-31
				C2906,5506.7,2981.7,5431,3075,5569z"/>
		</g>
		<g>
			<path class="st1" d="M3150,5938c186.7-276,338-124.7,62,62c276,186.7,124.7,338-62,62c-186.7,276-338,124.7-62-62
				C2812,5813.3,2963.3,5662,3150,5938z"/>
		</g>
		<g>
			<path class="st0" d="M3075,6369c93.3-138,169-62.3,31,31c138,93.3,62.3,169-31,31c-93.3,138-169,62.3-31-31
				C2906,6306.7,2981.7,6231,3075,6369z"/>
		</g>
		<g>
			<path class="st14" d="M3150,6738c186.7-276,338-124.7,62,62c276,186.7,124.7,338-62,62c-186.7,276-338,124.7-62-62
				C2812,6613.3,2963.3,6462,3150,6738z"/>
		</g>
		<g>
			<path class="st0" d="M3075,7169c93.3-138,169-62.3,31,31c138,93.3,62.3,169-31,31c-93.3,138-169,62.3-31-31
				C2906,7106.7,2981.7,7031,3075,7169z"/>
		</g>
		<g>
			<path class="st16" d="M3150,7538c186.7-276,338-124.7,62,62c276,186.7,124.7,338-62,62c-186.7,276-338,124.7-62-62
				C2812,7413.3,2963.3,7262,3150,7538z"/>
		</g>
		<g>
			<path class="st0" d="M3500-31c93.3-138,169-62.3,31,31c138,93.3,62.3,169-31,31c-93.3,138-169,62.3-31-31
				C3331-93.3,3406.7-169,3500-31z"/>
		</g>
		<g>
			<path class="st17" d="M3600,338c186.7-276,338-124.7,62,62c276,186.7,124.7,338-62,62c-186.7,276-338,124.7-62-62
				C3262,213.3,3413.3,62,3600,338z"/>
		</g>
		<g>
			<path class="st0" d="M3500,769c93.3-138,169-62.3,31,31c138,93.3,62.3,169-31,31c-93.3,138-169,62.3-31-31
				C3331,706.7,3406.7,631,3500,769z"/>
		</g>
		<g>
			<path class="st14" d="M3600,1138c186.7-276,338-124.7,62,62c276,186.7,124.7,338-62,62c-186.7,276-338,124.7-62-62
				C3262,1013.3,3413.3,862,3600,1138z"/>
		</g>
		<g>
			<path class="st0" d="M3500,1569c93.3-138,169-62.3,31,31c138,93.3,62.3,169-31,31c-93.3,138-169,62.3-31-31
				C3331,1506.7,3406.7,1431,3500,1569z"/>
		</g>
		<g>
			<path class="st26" d="M3600,1938c186.7-276,338-124.7,62,62c276,186.7,124.7,338-62,62c-186.7,276-338,124.7-62-62
				C3262,1813.3,3413.3,1662,3600,1938z"/>
		</g>
		<g>
			<path class="st0" d="M3500,2369c93.3-138,169-62.3,31,31c138,93.3,62.3,169-31,31c-93.3,138-169,62.3-31-31
				C3331,2306.7,3406.7,2231,3500,2369z"/>
		</g>
		<g>
			<path class="st16" d="M3600,2738c186.7-276,338-124.7,62,62c276,186.7,124.7,338-62,62c-186.7,276-338,124.7-62-62
				C3262,2613.3,3413.3,2462,3600,2738z"/>
		</g>
		<g>
			<path class="st0" d="M3500,3169c93.3-138,169-62.3,31,31c138,93.3,62.3,169-31,31c-93.3,138-169,62.3-31-31
				C3331,3106.7,3406.7,3031,3500,3169z"/>
		</g>
		<g>
			<path class="st13" d="M3600,3538c186.7-276,338-124.7,62,62c276,186.7,124.7,338-62,62c-186.7,276-338,124.7-62-62
				C3262,3413.3,3413.3,3262,3600,3538z"/>
		</g>
		<g>
			<path class="st0" d="M3500,3969c93.3-138,169-62.3,31,31c138,93.3,62.3,169-31,31c-93.3,138-169,62.3-31-31
				C3331,3906.7,3406.7,3831,3500,3969z"/>
		</g>
		<g>
			<path class="st7" d="M3600,4338c186.7-276,338-124.7,62,62c276,186.7,124.7,338-62,62c-186.7,276-338,124.7-62-62
				C3262,4213.3,3413.3,4062,3600,4338z"/>
		</g>
		<g>
			<path class="st0" d="M3500,4769c93.3-138,169-62.3,31,31c138,93.3,62.3,169-31,31c-93.3,138-169,62.3-31-31
				C3331,4706.7,3406.7,4631,3500,4769z"/>
		</g>
		<g>
			<path class="st10" d="M3600,5138c186.7-276,338-124.7,62,62c276,186.7,124.7,338-62,62c-186.7,276-338,124.7-62-62
				C3262,5013.3,3413.3,4862,3600,5138z"/>
		</g>
		<g>
			<path class="st0" d="M3500,5569c93.3-138,169-62.3,31,31c138,93.3,62.3,169-31,31c-93.3,138-169,62.3-31-31
				C3331,5506.7,3406.7,5431,3500,5569z"/>
		</g>
		<g>
			<path class="st3" d="M3600,5938c186.7-276,338-124.7,62,62c276,186.7,124.7,338-62,62c-186.7,276-338,124.7-62-62
				C3262,5813.3,3413.3,5662,3600,5938z"/>
		</g>
		<g>
			<path class="st0" d="M3500,6369c93.3-138,169-62.3,31,31c138,93.3,62.3,169-31,31c-93.3,138-169,62.3-31-31
				C3331,6306.7,3406.7,6231,3500,6369z"/>
		</g>
		<g>
			<path class="st19" d="M3600,6738c186.7-276,338-124.7,62,62c276,186.7,124.7,338-62,62c-186.7,276-338,124.7-62-62
				C3262,6613.3,3413.3,6462,3600,6738z"/>
		</g>
		<g>
			<path class="st0" d="M3500,7169c93.3-138,169-62.3,31,31c138,93.3,62.3,169-31,31c-93.3,138-169,62.3-31-31
				C3331,7106.7,3406.7,7031,3500,7169z"/>
		</g>
		<g>
			<path class="st13" d="M3600,7538c186.7-276,338-124.7,62,62c276,186.7,124.7,338-62,62c-186.7,276-338,124.7-62-62
				C3262,7413.3,3413.3,7262,3600,7538z"/>
		</g>
		<g>
			<path class="st0" d="M3925-31c93.3-138,169-62.3,31,31c138,93.3,62.3,169-31,31c-93.3,138-169,62.3-31-31
				C3756-93.3,3831.7-169,3925-31z"/>
		</g>
		<g>
			<path class="st27" d="M4050,338c186.7-276,338-124.7,62,62c276,186.7,124.7,338-62,62c-186.7,276-338,124.7-62-62
				C3712,213.3,3863.3,62,4050,338z"/>
		</g>
		<g>
			<path class="st0" d="M3925,769c93.3-138,169-62.3,31,31c138,93.3,62.3,169-31,31c-93.3,138-169,62.3-31-31
				C3756,706.7,3831.7,631,3925,769z"/>
		</g>
		<g>
			<path class="st23" d="M4050,1138c186.7-276,338-124.7,62,62c276,186.7,124.7,338-62,62c-186.7,276-338,124.7-62-62
				C3712,1013.3,3863.3,862,4050,1138z"/>
		</g>
		<g>
			<path class="st0" d="M3925,1569c93.3-138,169-62.3,31,31c138,93.3,62.3,169-31,31c-93.3,138-169,62.3-31-31
				C3756,1506.7,3831.7,1431,3925,1569z"/>
		</g>
		<g>
			<path class="st19" d="M4050,1938c186.7-276,338-124.7,62,62c276,186.7,124.7,338-62,62c-186.7,276-338,124.7-62-62
				C3712,1813.3,3863.3,1662,4050,1938z"/>
		</g>
		<g>
			<path class="st0" d="M3925,2369c93.3-138,169-62.3,31,31c138,93.3,62.3,169-31,31c-93.3,138-169,62.3-31-31
				C3756,2306.7,3831.7,2231,3925,2369z"/>
		</g>
		<g>
			<path class="st16" d="M4050,2738c186.7-276,338-124.7,62,62c276,186.7,124.7,338-62,62c-186.7,276-338,124.7-62-62
				C3712,2613.3,3863.3,2462,4050,2738z"/>
		</g>
		<g>
			<path class="st0" d="M3925,3169c93.3-138,169-62.3,31,31c138,93.3,62.3,169-31,31c-93.3,138-169,62.3-31-31
				C3756,3106.7,3831.7,3031,3925,3169z"/>
		</g>
		<g>
			<path class="st1" d="M4050,3538c186.7-276,338-124.7,62,62c276,186.7,124.7,338-62,62c-186.7,276-338,124.7-62-62
				C3712,3413.3,3863.3,3262,4050,3538z"/>
		</g>
		<g>
			<path class="st0" d="M3925,3969c93.3-138,169-62.3,31,31c138,93.3,62.3,169-31,31c-93.3,138-169,62.3-31-31
				C3756,3906.7,3831.7,3831,3925,3969z"/>
		</g>
		<g>
			<path class="st5" d="M4050,4338c186.7-276,338-124.7,62,62c276,186.7,124.7,338-62,62c-186.7,276-338,124.7-62-62
				C3712,4213.3,3863.3,4062,4050,4338z"/>
		</g>
		<g>
			<path class="st0" d="M3925,4769c93.3-138,169-62.3,31,31c138,93.3,62.3,169-31,31c-93.3,138-169,62.3-31-31
				C3756,4706.7,3831.7,4631,3925,4769z"/>
		</g>
		<g>
			<path class="st6" d="M4050,5138c186.7-276,338-124.7,62,62c276,186.7,124.7,338-62,62c-186.7,276-338,124.7-62-62
				C3712,5013.3,3863.3,4862,4050,5138z"/>
		</g>
		<g>
			<path class="st0" d="M3925,5569c93.3-138,169-62.3,31,31c138,93.3,62.3,169-31,31c-93.3,138-169,62.3-31-31
				C3756,5506.7,3831.7,5431,3925,5569z"/>
		</g>
		<g>
			<path class="st9" d="M4050,5938c186.7-276,338-124.7,62,62c276,186.7,124.7,338-62,62c-186.7,276-338,124.7-62-62
				C3712,5813.3,3863.3,5662,4050,5938z"/>
		</g>
		<g>
			<path class="st0" d="M3925,6369c93.3-138,169-62.3,31,31c138,93.3,62.3,169-31,31c-93.3,138-169,62.3-31-31
				C3756,6306.7,3831.7,6231,3925,6369z"/>
		</g>
		<g>
			<path class="st21" d="M4050,6738c186.7-276,338-124.7,62,62c276,186.7,124.7,338-62,62c-186.7,276-338,124.7-62-62
				C3712,6613.3,3863.3,6462,4050,6738z"/>
		</g>
		<g>
			<path class="st0" d="M3925,7169c93.3-138,169-62.3,31,31c138,93.3,62.3,169-31,31c-93.3,138-169,62.3-31-31
				C3756,7106.7,3831.7,7031,3925,7169z"/>
		</g>
		<g>
			<path class="st11" d="M4050,7538c186.7-276,338-124.7,62,62c276,186.7,124.7,338-62,62c-186.7,276-338,124.7-62-62
				C3712,7413.3,3863.3,7262,4050,7538z"/>
		</g>
		<g>
			<path class="st0" d="M4350-31c93.3-138,169-62.3,31,31c138,93.3,62.3,169-31,31c-93.3,138-169,62.3-31-31
				C4181-93.3,4256.7-169,4350-31z"/>
		</g>
		<g>
			<path class="st12" d="M4500,338c186.7-276,338-124.7,62,62c276,186.7,124.7,338-62,62c-186.7,276-338,124.7-62-62
				C4162,213.3,4313.3,62,4500,338z"/>
		</g>
		<g>
			<path class="st0" d="M4350,769c93.3-138,169-62.3,31,31c138,93.3,62.3,169-31,31c-93.3,138-169,62.3-31-31
				C4181,706.7,4256.7,631,4350,769z"/>
		</g>
		<g>
			<path class="st11" d="M4500,1138c186.7-276,338-124.7,62,62c276,186.7,124.7,338-62,62c-186.7,276-338,124.7-62-62
				C4162,1013.3,4313.3,862,4500,1138z"/>
		</g>
		<g>
			<path class="st0" d="M4350,1569c93.3-138,169-62.3,31,31c138,93.3,62.3,169-31,31c-93.3,138-169,62.3-31-31
				C4181,1506.7,4256.7,1431,4350,1569z"/>
		</g>
		<g>
			<path class="st12" d="M4500,1938c186.7-276,338-124.7,62,62c276,186.7,124.7,338-62,62c-186.7,276-338,124.7-62-62
				C4162,1813.3,4313.3,1662,4500,1938z"/>
		</g>
		<g>
			<path class="st0" d="M4350,2369c93.3-138,169-62.3,31,31c138,93.3,62.3,169-31,31c-93.3,138-169,62.3-31-31
				C4181,2306.7,4256.7,2231,4350,2369z"/>
		</g>
		<g>
			<path class="st25" d="M4500,2738c186.7-276,338-124.7,62,62c276,186.7,124.7,338-62,62c-186.7,276-338,124.7-62-62
				C4162,2613.3,4313.3,2462,4500,2738z"/>
		</g>
		<g>
			<path class="st0" d="M4350,3169c93.3-138,169-62.3,31,31c138,93.3,62.3,169-31,31c-93.3,138-169,62.3-31-31
				C4181,3106.7,4256.7,3031,4350,3169z"/>
		</g>
		<g>
			<path class="st28" d="M4500,3538c186.7-276,338-124.7,62,62c276,186.7,124.7,338-62,62c-186.7,276-338,124.7-62-62
				C4162,3413.3,4313.3,3262,4500,3538z"/>
		</g>
		<g>
			<path class="st0" d="M4350,3969c93.3-138,169-62.3,31,31c138,93.3,62.3,169-31,31c-93.3,138-169,62.3-31-31
				C4181,3906.7,4256.7,3831,4350,3969z"/>
		</g>
		<g>
			<path class="st21" d="M4500,4338c186.7-276,338-124.7,62,62c276,186.7,124.7,338-62,62c-186.7,276-338,124.7-62-62
				C4162,4213.3,4313.3,4062,4500,4338z"/>
		</g>
		<g>
			<path class="st0" d="M4350,4769c93.3-138,169-62.3,31,31c138,93.3,62.3,169-31,31c-93.3,138-169,62.3-31-31
				C4181,4706.7,4256.7,4631,4350,4769z"/>
		</g>
		<g>
			<path class="st25" d="M4500,5138c186.7-276,338-124.7,62,62c276,186.7,124.7,338-62,62c-186.7,276-338,124.7-62-62
				C4162,5013.3,4313.3,4862,4500,5138z"/>
		</g>
		<g>
			<path class="st0" d="M4350,5569c93.3-138,169-62.3,31,31c138,93.3,62.3,169-31,31c-93.3,138-169,62.3-31-31
				C4181,5506.7,4256.7,5431,4350,5569z"/>
		</g>
		<g>
			<path class="st19" d="M4500,5938c186.7-276,338-124.7,62,62c276,186.7,124.7,338-62,62c-186.7,276-338,124.7-62-62
				C4162,5813.3,4313.3,5662,4500,5938z"/>
		</g>
		<g>
			<path class="st0" d="M4350,6369c93.3-138,169-62.3,31,31c138,93.3,62.3,169-31,31c-93.3,138-169,62.3-31-31
				C4181,6306.7,4256.7,6231,4350,6369z"/>
		</g>
		<g>
			<path class="st24" d="M4500,6738c186.7-276,338-124.7,62,62c276,186.7,124.7,338-62,62c-186.7,276-338,124.7-62-62
				C4162,6613.3,4313.3,6462,4500,6738z"/>
		</g>
		<g>
			<path class="st0" d="M4350,7169c93.3-138,169-62.3,31,31c138,93.3,62.3,169-31,31c-93.3,138-169,62.3-31-31
				C4181,7106.7,4256.7,7031,4350,7169z"/>
		</g>
		<g>
			<path class="st14" d="M4500,7538c186.7-276,338-124.7,62,62c276,186.7,124.7,338-62,62c-186.7,276-338,124.7-62-62
				C4162,7413.3,4313.3,7262,4500,7538z"/>
		</g>
		<g>
			<path class="st0" d="M4775-31c93.3-138,169-62.3,31,31c138,93.3,62.3,169-31,31c-93.3,138-169,62.3-31-31
				C4606-93.3,4681.7-169,4775-31z"/>
		</g>
		<g>
			<path class="st23" d="M4950,338c186.7-276,338-124.7,62,62c276,186.7,124.7,338-62,62c-186.7,276-338,124.7-62-62
				C4612,213.3,4763.3,62,4950,338z"/>
		</g>
		<g>
			<path class="st0" d="M4775,769c93.3-138,169-62.3,31,31c138,93.3,62.3,169-31,31c-93.3,138-169,62.3-31-31
				C4606,706.7,4681.7,631,4775,769z"/>
		</g>
		<g>
			<path class="st7" d="M4950,1138c186.7-276,338-124.7,62,62c276,186.7,124.7,338-62,62c-186.7,276-338,124.7-62-62
				C4612,1013.3,4763.3,862,4950,1138z"/>
		</g>
		<g>
			<path class="st0" d="M4775,1569c93.3-138,169-62.3,31,31c138,93.3,62.3,169-31,31c-93.3,138-169,62.3-31-31
				C4606,1506.7,4681.7,1431,4775,1569z"/>
		</g>
		<g>
			<path class="st9" d="M4950,1938c186.7-276,338-124.7,62,62c276,186.7,124.7,338-62,62c-186.7,276-338,124.7-62-62
				C4612,1813.3,4763.3,1662,4950,1938z"/>
		</g>
		<g>
			<path class="st0" d="M4775,2369c93.3-138,169-62.3,31,31c138,93.3,62.3,169-31,31c-93.3,138-169,62.3-31-31
				C4606,2306.7,4681.7,2231,4775,2369z"/>
		</g>
		<g>
			<path class="st16" d="M4950,2738c186.7-276,338-124.7,62,62c276,186.7,124.7,338-62,62c-186.7,276-338,124.7-62-62
				C4612,2613.3,4763.3,2462,4950,2738z"/>
		</g>
		<g>
			<path class="st0" d="M4775,3169c93.3-138,169-62.3,31,31c138,93.3,62.3,169-31,31c-93.3,138-169,62.3-31-31
				C4606,3106.7,4681.7,3031,4775,3169z"/>
		</g>
		<g>
			<path class="st24" d="M4950,3538c186.7-276,338-124.7,62,62c276,186.7,124.7,338-62,62c-186.7,276-338,124.7-62-62
				C4612,3413.3,4763.3,3262,4950,3538z"/>
		</g>
		<g>
			<path class="st0" d="M4775,3969c93.3-138,169-62.3,31,31c138,93.3,62.3,169-31,31c-93.3,138-169,62.3-31-31
				C4606,3906.7,4681.7,3831,4775,3969z"/>
		</g>
		<g>
			<path class="st7" d="M4950,4338c186.7-276,338-124.7,62,62c276,186.7,124.7,338-62,62c-186.7,276-338,124.7-62-62
				C4612,4213.3,4763.3,4062,4950,4338z"/>
		</g>
		<g>
			<path class="st0" d="M4775,4769c93.3-138,169-62.3,31,31c138,93.3,62.3,169-31,31c-93.3,138-169,62.3-31-31
				C4606,4706.7,4681.7,4631,4775,4769z"/>
		</g>
		<g>
			<path class="st11" d="M4950,5138c186.7-276,338-124.7,62,62c276,186.7,124.7,338-62,62c-186.7,276-338,124.7-62-62
				C4612,5013.3,4763.3,4862,4950,5138z"/>
		</g>
		<g>
			<path class="st0" d="M4775,5569c93.3-138,169-62.3,31,31c138,93.3,62.3,169-31,31c-93.3,138-169,62.3-31-31
				C4606,5506.7,4681.7,5431,4775,5569z"/>
		</g>
		<g>
			<path class="st5" d="M4950,5938c186.7-276,338-124.7,62,62c276,186.7,124.7,338-62,62c-186.7,276-338,124.7-62-62
				C4612,5813.3,4763.3,5662,4950,5938z"/>
		</g>
		<g>
			<path class="st0" d="M4775,6369c93.3-138,169-62.3,31,31c138,93.3,62.3,169-31,31c-93.3,138-169,62.3-31-31
				C4606,6306.7,4681.7,6231,4775,6369z"/>
		</g>
		<g>
			<path class="st3" d="M4950,6738c186.7-276,338-124.7,62,62c276,186.7,124.7,338-62,62c-186.7,276-338,124.7-62-62
				C4612,6613.3,4763.3,6462,4950,6738z"/>
		</g>
		<g>
			<path class="st0" d="M4775,7169c93.3-138,169-62.3,31,31c138,93.3,62.3,169-31,31c-93.3,138-169,62.3-31-31
				C4606,7106.7,4681.7,7031,4775,7169z"/>
		</g>
		<g>
			<path class="st2" d="M4950,7538c186.7-276,338-124.7,62,62c276,186.7,124.7,338-62,62c-186.7,276-338,124.7-62-62
				C4612,7413.3,4763.3,7262,4950,7538z"/>
		</g>
		<g>
			<path class="st0" d="M5200-31c93.3-138,169-62.3,31,31c138,93.3,62.3,169-31,31c-93.3,138-169,62.3-31-31
				C5031-93.3,5106.7-169,5200-31z"/>
		</g>
		<g>
			<path class="st8" d="M5400,338c186.7-276,338-124.7,62,62c276,186.7,124.7,338-62,62c-186.7,276-338,124.7-62-62
				C5062,213.3,5213.3,62,5400,338z"/>
		</g>
		<g>
			<path class="st0" d="M5200,769c93.3-138,169-62.3,31,31c138,93.3,62.3,169-31,31c-93.3,138-169,62.3-31-31
				C5031,706.7,5106.7,631,5200,769z"/>
		</g>
		<g>
			<path class="st20" d="M5400,1138c186.7-276,338-124.7,62,62c276,186.7,124.7,338-62,62c-186.7,276-338,124.7-62-62
				C5062,1013.3,5213.3,862,5400,1138z"/>
		</g>
		<g>
			<path class="st0" d="M5200,1569c93.3-138,169-62.3,31,31c138,93.3,62.3,169-31,31c-93.3,138-169,62.3-31-31
				C5031,1506.7,5106.7,1431,5200,1569z"/>
		</g>
		<g>
			<path class="st15" d="M5400,1938c186.7-276,338-124.7,62,62c276,186.7,124.7,338-62,62c-186.7,276-338,124.7-62-62
				C5062,1813.3,5213.3,1662,5400,1938z"/>
		</g>
		<g>
			<path class="st0" d="M5200,2369c93.3-138,169-62.3,31,31c138,93.3,62.3,169-31,31c-93.3,138-169,62.3-31-31
				C5031,2306.7,5106.7,2231,5200,2369z"/>
		</g>
		<g>
			<path class="st2" d="M5400,2738c186.7-276,338-124.7,62,62c276,186.7,124.7,338-62,62c-186.7,276-338,124.7-62-62
				C5062,2613.3,5213.3,2462,5400,2738z"/>
		</g>
		<g>
			<path class="st0" d="M5200,3169c93.3-138,169-62.3,31,31c138,93.3,62.3,169-31,31c-93.3,138-169,62.3-31-31
				C5031,3106.7,5106.7,3031,5200,3169z"/>
		</g>
		<g>
			<path class="st2" d="M5400,3538c186.7-276,338-124.7,62,62c276,186.7,124.7,338-62,62c-186.7,276-338,124.7-62-62
				C5062,3413.3,5213.3,3262,5400,3538z"/>
		</g>
		<g>
			<path class="st0" d="M5200,3969c93.3-138,169-62.3,31,31c138,93.3,62.3,169-31,31c-93.3,138-169,62.3-31-31
				C5031,3906.7,5106.7,3831,5200,3969z"/>
		</g>
		<g>
			<path class="st7" d="M5400,4338c186.7-276,338-124.7,62,62c276,186.7,124.7,338-62,62c-186.7,276-338,124.7-62-62
				C5062,4213.3,5213.3,4062,5400,4338z"/>
		</g>
		<g>
			<path class="st0" d="M5200,4769c93.3-138,169-62.3,31,31c138,93.3,62.3,169-31,31c-93.3,138-169,62.3-31-31
				C5031,4706.7,5106.7,4631,5200,4769z"/>
		</g>
		<g>
			<path class="st23" d="M5400,5138c186.7-276,338-124.7,62,62c276,186.7,124.7,338-62,62c-186.7,276-338,124.7-62-62
				C5062,5013.3,5213.3,4862,5400,5138z"/>
		</g>
		<g>
			<path class="st0" d="M5200,5569c93.3-138,169-62.3,31,31c138,93.3,62.3,169-31,31c-93.3,138-169,62.3-31-31
				C5031,5506.7,5106.7,5431,5200,5569z"/>
		</g>
		<g>
			<path class="st2" d="M5400,5938c186.7-276,338-124.7,62,62c276,186.7,124.7,338-62,62c-186.7,276-338,124.7-62-62
				C5062,5813.3,5213.3,5662,5400,5938z"/>
		</g>
		<g>
			<path class="st0" d="M5200,6369c93.3-138,169-62.3,31,31c138,93.3,62.3,169-31,31c-93.3,138-169,62.3-31-31
				C5031,6306.7,5106.7,6231,5200,6369z"/>
		</g>
		<g>
			<path class="st17" d="M5400,6738c186.7-276,338-124.7,62,62c276,186.7,124.7,338-62,62c-186.7,276-338,124.7-62-62
				C5062,6613.3,5213.3,6462,5400,6738z"/>
		</g>
		<g>
			<path class="st0" d="M5200,7169c93.3-138,169-62.3,31,31c138,93.3,62.3,169-31,31c-93.3,138-169,62.3-31-31
				C5031,7106.7,5106.7,7031,5200,7169z"/>
		</g>
		<g>
			<path class="st20" d="M5400,7538c186.7-276,338-124.7,62,62c276,186.7,124.7,338-62,62c-186.7,276-338,124.7-62-62
				C5062,7413.3,5213.3,7262,5400,7538z"/>
		</g>
		<g>
			<path class="st0" d="M5625-31c93.3-138,169-62.3,31,31c138,93.3,62.3,169-31,31c-93.3,138-169,62.3-31-31
				C5456-93.3,5531.7-169,5625-31z"/>
		</g>
		<g>
			<path class="st6" d="M5850,338c186.7-276,338-124.7,62,62c276,186.7,124.7,338-62,62c-186.7,276-338,124.7-62-62
				C5512,213.3,5663.3,62,5850,338z"/>
		</g>
		<g>
			<path class="st0" d="M5625,769c93.3-138,169-62.3,31,31c138,93.3,62.3,169-31,31c-93.3,138-169,62.3-31-31
				C5456,706.7,5531.7,631,5625,769z"/>
		</g>
		<g>
			<path class="st20" d="M5850,1138c186.7-276,338-124.7,62,62c276,186.7,124.7,338-62,62c-186.7,276-338,124.7-62-62
				C5512,1013.3,5663.3,862,5850,1138z"/>
		</g>
		<g>
			<path class="st0" d="M5625,1569c93.3-138,169-62.3,31,31c138,93.3,62.3,169-31,31c-93.3,138-169,62.3-31-31
				C5456,1506.7,5531.7,1431,5625,1569z"/>
		</g>
		<g>
			<path class="st28" d="M5850,1938c186.7-276,338-124.7,62,62c276,186.7,124.7,338-62,62c-186.7,276-338,124.7-62-62
				C5512,1813.3,5663.3,1662,5850,1938z"/>
		</g>
		<g>
			<path class="st0" d="M5625,2369c93.3-138,169-62.3,31,31c138,93.3,62.3,169-31,31c-93.3,138-169,62.3-31-31
				C5456,2306.7,5531.7,2231,5625,2369z"/>
		</g>
		<g>
			<path class="st15" d="M5850,2738c186.7-276,338-124.7,62,62c276,186.7,124.7,338-62,62c-186.7,276-338,124.7-62-62
				C5512,2613.3,5663.3,2462,5850,2738z"/>
		</g>
		<g>
			<path class="st0" d="M5625,3169c93.3-138,169-62.3,31,31c138,93.3,62.3,169-31,31c-93.3,138-169,62.3-31-31
				C5456,3106.7,5531.7,3031,5625,3169z"/>
		</g>
		<g>
			<path class="st25" d="M5850,3538c186.7-276,338-124.7,62,62c276,186.7,124.7,338-62,62c-186.7,276-338,124.7-62-62
				C5512,3413.3,5663.3,3262,5850,3538z"/>
		</g>
		<g>
			<path class="st0" d="M5625,3969c93.3-138,169-62.3,31,31c138,93.3,62.3,169-31,31c-93.3,138-169,62.3-31-31
				C5456,3906.7,5531.7,3831,5625,3969z"/>
		</g>
		<g>
			<path class="st23" d="M5850,4338c186.7-276,338-124.7,62,62c276,186.7,124.7,338-62,62c-186.7,276-338,124.7-62-62
				C5512,4213.3,5663.3,4062,5850,4338z"/>
		</g>
		<g>
			<path class="st0" d="M5625,4769c93.3-138,169-62.3,31,31c138,93.3,62.3,169-31,31c-93.3,138-169,62.3-31-31
				C5456,4706.7,5531.7,4631,5625,4769z"/>
		</g>
		<g>
			<path class="st6" d="M5850,5138c186.7-276,338-124.7,62,62c276,186.7,124.7,338-62,62c-186.7,276-338,124.7-62-62
				C5512,5013.3,5663.3,4862,5850,5138z"/>
		</g>
		<g>
			<path class="st0" d="M5625,5569c93.3-138,169-62.3,31,31c138,93.3,62.3,169-31,31c-93.3,138-169,62.3-31-31
				C5456,5506.7,5531.7,5431,5625,5569z"/>
		</g>
		<g>
			<path class="st25" d="M5850,5938c186.7-276,338-124.7,62,62c276,186.7,124.7,338-62,62c-186.7,276-338,124.7-62-62
				C5512,5813.3,5663.3,5662,5850,5938z"/>
		</g>
		<g>
			<path class="st0" d="M5625,6369c93.3-138,169-62.3,31,31c138,93.3,62.3,169-31,31c-93.3,138-169,62.3-31-31
				C5456,6306.7,5531.7,6231,5625,6369z"/>
		</g>
		<g>
			<path class="st9" d="M5850,6738c186.7-276,338-124.7,62,62c276,186.7,124.7,338-62,62c-186.7,276-338,124.7-62-62
				C5512,6613.3,5663.3,6462,5850,6738z"/>
		</g>
		<g>
			<path class="st0" d="M5625,7169c93.3-138,169-62.3,31,31c138,93.3,62.3,169-31,31c-93.3,138-169,62.3-31-31
				C5456,7106.7,5531.7,7031,5625,7169z"/>
		</g>
		<g>
			<path class="st17" d="M5850,7538c186.7-276,338-124.7,62,62c276,186.7,124.7,338-62,62c-186.7,276-338,124.7-62-62
				C5512,7413.3,5663.3,7262,5850,7538z"/>
		</g>
		<g>
			<path class="st0" d="M6050-31c93.3-138,169-62.3,31,31c138,93.3,62.3,169-31,31c-93.3,138-169,62.3-31-31
				C5881-93.3,5956.7-169,6050-31z"/>
		</g>
		<g>
			<path class="st11" d="M6300,338c186.7-276,338-124.7,62,62c276,186.7,124.7,338-62,62c-186.7,276-338,124.7-62-62
				C5962,213.3,6113.3,62,6300,338z"/>
		</g>
		<g>
			<path class="st0" d="M6050,769c93.3-138,169-62.3,31,31c138,93.3,62.3,169-31,31c-93.3,138-169,62.3-31-31
				C5881,706.7,5956.7,631,6050,769z"/>
		</g>
		<g>
			<path class="st16" d="M6300,1138c186.7-276,338-124.7,62,62c276,186.7,124.7,338-62,62c-186.7,276-338,124.7-62-62
				C5962,1013.3,6113.3,862,6300,1138z"/>
		</g>
		<g>
			<path class="st0" d="M6050,1569c93.3-138,169-62.3,31,31c138,93.3,62.3,169-31,31c-93.3,138-169,62.3-31-31
				C5881,1506.7,5956.7,1431,6050,1569z"/>
		</g>
		<g>
			<path class="st19" d="M6300,1938c186.7-276,338-124.7,62,62c276,186.7,124.7,338-62,62c-186.7,276-338,124.7-62-62
				C5962,1813.3,6113.3,1662,6300,1938z"/>
		</g>
		<g>
			<path class="st0" d="M6050,2369c93.3-138,169-62.3,31,31c138,93.3,62.3,169-31,31c-93.3,138-169,62.3-31-31
				C5881,2306.7,5956.7,2231,6050,2369z"/>
		</g>
		<g>
			<path class="st21" d="M6300,2738c186.7-276,338-124.7,62,62c276,186.7,124.7,338-62,62c-186.7,276-338,124.7-62-62
				C5962,2613.3,6113.3,2462,6300,2738z"/>
		</g>
		<g>
			<path class="st0" d="M6050,3169c93.3-138,169-62.3,31,31c138,93.3,62.3,169-31,31c-93.3,138-169,62.3-31-31
				C5881,3106.7,5956.7,3031,6050,3169z"/>
		</g>
		<g>
			<path class="st9" d="M6300,3538c186.7-276,338-124.7,62,62c276,186.7,124.7,338-62,62c-186.7,276-338,124.7-62-62
				C5962,3413.3,6113.3,3262,6300,3538z"/>
		</g>
		<g>
			<path class="st0" d="M6050,3969c93.3-138,169-62.3,31,31c138,93.3,62.3,169-31,31c-93.3,138-169,62.3-31-31
				C5881,3906.7,5956.7,3831,6050,3969z"/>
		</g>
		<g>
			<path class="st10" d="M6300,4338c186.7-276,338-124.7,62,62c276,186.7,124.7,338-62,62c-186.7,276-338,124.7-62-62
				C5962,4213.3,6113.3,4062,6300,4338z"/>
		</g>
		<g>
			<path class="st0" d="M6050,4769c93.3-138,169-62.3,31,31c138,93.3,62.3,169-31,31c-93.3,138-169,62.3-31-31
				C5881,4706.7,5956.7,4631,6050,4769z"/>
		</g>
		<g>
			<path class="st19" d="M6300,5138c186.7-276,338-124.7,62,62c276,186.7,124.7,338-62,62c-186.7,276-338,124.7-62-62
				C5962,5013.3,6113.3,4862,6300,5138z"/>
		</g>
		<g>
			<path class="st0" d="M6050,5569c93.3-138,169-62.3,31,31c138,93.3,62.3,169-31,31c-93.3,138-169,62.3-31-31
				C5881,5506.7,5956.7,5431,6050,5569z"/>
		</g>
		<g>
			<path class="st23" d="M6300,5938c186.7-276,338-124.7,62,62c276,186.7,124.7,338-62,62c-186.7,276-338,124.7-62-62
				C5962,5813.3,6113.3,5662,6300,5938z"/>
		</g>
		<g>
			<path class="st0" d="M6050,6369c93.3-138,169-62.3,31,31c138,93.3,62.3,169-31,31c-93.3,138-169,62.3-31-31
				C5881,6306.7,5956.7,6231,6050,6369z"/>
		</g>
		<g>
			<path class="st3" d="M6300,6738c186.7-276,338-124.7,62,62c276,186.7,124.7,338-62,62c-186.7,276-338,124.7-62-62
				C5962,6613.3,6113.3,6462,6300,6738z"/>
		</g>
		<g>
			<path class="st0" d="M6050,7169c93.3-138,169-62.3,31,31c138,93.3,62.3,169-31,31c-93.3,138-169,62.3-31-31
				C5881,7106.7,5956.7,7031,6050,7169z"/>
		</g>
		<g>
			<path class="st11" d="M6300,7538c186.7-276,338-124.7,62,62c276,186.7,124.7,338-62,62c-186.7,276-338,124.7-62-62
				C5962,7413.3,6113.3,7262,6300,7538z"/>
		</g>
		<g>
			<path class="st0" d="M6475-31c93.3-138,169-62.3,31,31c138,93.3,62.3,169-31,31c-93.3,138-169,62.3-31-31
				C6306-93.3,6381.7-169,6475-31z"/>
		</g>
		<g>
			<path class="st12" d="M6750,338c186.7-276,338-124.7,62,62c276,186.7,124.7,338-62,62c-186.7,276-338,124.7-62-62
				C6412,213.3,6563.3,62,6750,338z"/>
		</g>
		<g>
			<path class="st0" d="M6475,769c93.3-138,169-62.3,31,31c138,93.3,62.3,169-31,31c-93.3,138-169,62.3-31-31
				C6306,706.7,6381.7,631,6475,769z"/>
		</g>
		<g>
			<path class="st8" d="M6750,1138c186.7-276,338-124.7,62,62c276,186.7,124.7,338-62,62c-186.7,276-338,124.7-62-62
				C6412,1013.3,6563.3,862,6750,1138z"/>
		</g>
		<g>
			<path class="st0" d="M6475,1569c93.3-138,169-62.3,31,31c138,93.3,62.3,169-31,31c-93.3,138-169,62.3-31-31
				C6306,1506.7,6381.7,1431,6475,1569z"/>
		</g>
		<g>
			<path class="st22" d="M6750,1938c186.7-276,338-124.7,62,62c276,186.7,124.7,338-62,62c-186.7,276-338,124.7-62-62
				C6412,1813.3,6563.3,1662,6750,1938z"/>
		</g>
		<g>
			<path class="st0" d="M6475,2369c93.3-138,169-62.3,31,31c138,93.3,62.3,169-31,31c-93.3,138-169,62.3-31-31
				C6306,2306.7,6381.7,2231,6475,2369z"/>
		</g>
		<g>
			<path class="st2" d="M6750,2738c186.7-276,338-124.7,62,62c276,186.7,124.7,338-62,62c-186.7,276-338,124.7-62-62
				C6412,2613.3,6563.3,2462,6750,2738z"/>
		</g>
		<g>
			<path class="st0" d="M6475,3169c93.3-138,169-62.3,31,31c138,93.3,62.3,169-31,31c-93.3,138-169,62.3-31-31
				C6306,3106.7,6381.7,3031,6475,3169z"/>
		</g>
		<g>
			<path class="st18" d="M6750,3538c186.7-276,338-124.7,62,62c276,186.7,124.7,338-62,62c-186.7,276-338,124.7-62-62
				C6412,3413.3,6563.3,3262,6750,3538z"/>
		</g>
		<g>
			<path class="st0" d="M6475,3969c93.3-138,169-62.3,31,31c138,93.3,62.3,169-31,31c-93.3,138-169,62.3-31-31
				C6306,3906.7,6381.7,3831,6475,3969z"/>
		</g>
		<g>
			<path class="st25" d="M6750,4338c186.7-276,338-124.7,62,62c276,186.7,124.7,338-62,62c-186.7,276-338,124.7-62-62
				C6412,4213.3,6563.3,4062,6750,4338z"/>
		</g>
		<g>
			<path class="st0" d="M6475,4769c93.3-138,169-62.3,31,31c138,93.3,62.3,169-31,31c-93.3,138-169,62.3-31-31
				C6306,4706.7,6381.7,4631,6475,4769z"/>
		</g>
		<g>
			<path class="st16" d="M6750,5138c186.7-276,338-124.7,62,62c276,186.7,124.7,338-62,62c-186.7,276-338,124.7-62-62
				C6412,5013.3,6563.3,4862,6750,5138z"/>
		</g>
		<g>
			<path class="st0" d="M6475,5569c93.3-138,169-62.3,31,31c138,93.3,62.3,169-31,31c-93.3,138-169,62.3-31-31
				C6306,5506.7,6381.7,5431,6475,5569z"/>
		</g>
		<g>
			<path class="st1" d="M6750,5938c186.7-276,338-124.7,62,62c276,186.7,124.7,338-62,62c-186.7,276-338,124.7-62-62
				C6412,5813.3,6563.3,5662,6750,5938z"/>
		</g>
		<g>
			<path class="st0" d="M6475,6369c93.3-138,169-62.3,31,31c138,93.3,62.3,169-31,31c-93.3,138-169,62.3-31-31
				C6306,6306.7,6381.7,6231,6475,6369z"/>
		</g>
		<g>
			<path class="st28" d="M6750,6738c186.7-276,338-124.7,62,62c276,186.7,124.7,338-62,62c-186.7,276-338,124.7-62-62
				C6412,6613.3,6563.3,6462,6750,6738z"/>
		</g>
		<g>
			<path class="st0" d="M6475,7169c93.3-138,169-62.3,31,31c138,93.3,62.3,169-31,31c-93.3,138-169,62.3-31-31
				C6306,7106.7,6381.7,7031,6475,7169z"/>
		</g>
		<g>
			<path class="st28" d="M6750,7538c186.7-276,338-124.7,62,62c276,186.7,124.7,338-62,62c-186.7,276-338,124.7-62-62
				C6412,7413.3,6563.3,7262,6750,7538z"/>
		</g>
		<g>
			<path class="st0" d="M6900-31c93.3-138,169-62.3,31,31c138,93.3,62.3,169-31,31c-93.3,138-169,62.3-31-31
				C6731-93.3,6806.7-169,6900-31z"/>
		</g>
		<g>
			<path class="st6" d="M7200,338c186.7-276,338-124.7,62,62c276,186.7,124.7,338-62,62c-186.7,276-338,124.7-62-62
				C6862,213.3,7013.3,62,7200,338z"/>
		</g>
		<g>
			<path class="st0" d="M6900,769c93.3-138,169-62.3,31,31c138,93.3,62.3,169-31,31c-93.3,138-169,62.3-31-31
				C6731,706.7,6806.7,631,6900,769z"/>
		</g>
		<g>
			<path class="st3" d="M7200,1138c186.7-276,338-124.7,62,62c276,186.7,124.7,338-62,62c-186.7,276-338,124.7-62-62
				C6862,1013.3,7013.3,862,7200,1138z"/>
		</g>
		<g>
			<path class="st0" d="M6900,1569c93.3-138,169-62.3,31,31c138,93.3,62.3,169-31,31c-93.3,138-169,62.3-31-31
				C6731,1506.7,6806.7,1431,6900,1569z"/>
		</g>
		<g>
			<path class="st19" d="M7200,1938c186.7-276,338-124.7,62,62c276,186.7,124.7,338-62,62c-186.7,276-338,124.7-62-62
				C6862,1813.3,7013.3,1662,7200,1938z"/>
		</g>
		<g>
			<path class="st0" d="M6900,2369c93.3-138,169-62.3,31,31c138,93.3,62.3,169-31,31c-93.3,138-169,62.3-31-31
				C6731,2306.7,6806.7,2231,6900,2369z"/>
		</g>
		<g>
			<path class="st14" d="M7200,2738c186.7-276,338-124.7,62,62c276,186.7,124.7,338-62,62c-186.7,276-338,124.7-62-62
				C6862,2613.3,7013.3,2462,7200,2738z"/>
		</g>
		<g>
			<path class="st0" d="M6900,3169c93.3-138,169-62.3,31,31c138,93.3,62.3,169-31,31c-93.3,138-169,62.3-31-31
				C6731,3106.7,6806.7,3031,6900,3169z"/>
		</g>
		<g>
			<path class="st28" d="M7200,3538c186.7-276,338-124.7,62,62c276,186.7,124.7,338-62,62c-186.7,276-338,124.7-62-62
				C6862,3413.3,7013.3,3262,7200,3538z"/>
		</g>
		<g>
			<path class="st0" d="M6900,3969c93.3-138,169-62.3,31,31c138,93.3,62.3,169-31,31c-93.3,138-169,62.3-31-31
				C6731,3906.7,6806.7,3831,6900,3969z"/>
		</g>
		<g>
			<path class="st9" d="M7200,4338c186.7-276,338-124.7,62,62c276,186.7,124.7,338-62,62c-186.7,276-338,124.7-62-62
				C6862,4213.3,7013.3,4062,7200,4338z"/>
		</g>
		<g>
			<path class="st0" d="M6900,4769c93.3-138,169-62.3,31,31c138,93.3,62.3,169-31,31c-93.3,138-169,62.3-31-31
				C6731,4706.7,6806.7,4631,6900,4769z"/>
		</g>
		<g>
			<path class="st14" d="M7200,5138c186.7-276,338-124.7,62,62c276,186.7,124.7,338-62,62c-186.7,276-338,124.7-62-62
				C6862,5013.3,7013.3,4862,7200,5138z"/>
		</g>
		<g>
			<path class="st0" d="M6900,5569c93.3-138,169-62.3,31,31c138,93.3,62.3,169-31,31c-93.3,138-169,62.3-31-31
				C6731,5506.7,6806.7,5431,6900,5569z"/>
		</g>
		<g>
			<path class="st20" d="M7200,5938c186.7-276,338-124.7,62,62c276,186.7,124.7,338-62,62c-186.7,276-338,124.7-62-62
				C6862,5813.3,7013.3,5662,7200,5938z"/>
		</g>
		<g>
			<path class="st0" d="M6900,6369c93.3-138,169-62.3,31,31c138,93.3,62.3,169-31,31c-93.3,138-169,62.3-31-31
				C6731,6306.7,6806.7,6231,6900,6369z"/>
		</g>
		<g>
			<path class="st22" d="M7200,6738c186.7-276,338-124.7,62,62c276,186.7,124.7,338-62,62c-186.7,276-338,124.7-62-62
				C6862,6613.3,7013.3,6462,7200,6738z"/>
		</g>
		<g>
			<path class="st0" d="M6900,7169c93.3-138,169-62.3,31,31c138,93.3,62.3,169-31,31c-93.3,138-169,62.3-31-31
				C6731,7106.7,6806.7,7031,6900,7169z"/>
		</g>
		<g>
			<path class="st1" d="M7200,7538c186.7-276,338-124.7,62,62c276,186.7,124.7,338-62,62c-186.7,276-338,124.7-62-62
				C6862,7413.3,7013.3,7262,7200,7538z"/>
		</g>
		<g>
			<path class="st0" d="M7325-31c93.3-138,169-62.3,31,31c138,93.3,62.3,169-31,31c-93.3,138-169,62.3-31-31
				C7156-93.3,7231.7-169,7325-31z"/>
		</g>
		<g>
			<path class="st19" d="M7650,338c186.7-276,338-124.7,62,62c276,186.7,124.7,338-62,62c-186.7,276-338,124.7-62-62
				C7312,213.3,7463.3,62,7650,338z"/>
		</g>
		<g>
			<path class="st0" d="M7325,769c93.3-138,169-62.3,31,31c138,93.3,62.3,169-31,31c-93.3,138-169,62.3-31-31
				C7156,706.7,7231.7,631,7325,769z"/>
		</g>
		<g>
			<path class="st11" d="M7650,1138c186.7-276,338-124.7,62,62c276,186.7,124.7,338-62,62c-186.7,276-338,124.7-62-62
				C7312,1013.3,7463.3,862,7650,1138z"/>
		</g>
		<g>
			<path class="st0" d="M7325,1569c93.3-138,169-62.3,31,31c138,93.3,62.3,169-31,31c-93.3,138-169,62.3-31-31
				C7156,1506.7,7231.7,1431,7325,1569z"/>
		</g>
		<g>
			<path class="st7" d="M7650,1938c186.7-276,338-124.7,62,62c276,186.7,124.7,338-62,62c-186.7,276-338,124.7-62-62
				C7312,1813.3,7463.3,1662,7650,1938z"/>
		</g>
		<g>
			<path class="st0" d="M7325,2369c93.3-138,169-62.3,31,31c138,93.3,62.3,169-31,31c-93.3,138-169,62.3-31-31
				C7156,2306.7,7231.7,2231,7325,2369z"/>
		</g>
		<g>
			<path class="st10" d="M7650,2738c186.7-276,338-124.7,62,62c276,186.7,124.7,338-62,62c-186.7,276-338,124.7-62-62
				C7312,2613.3,7463.3,2462,7650,2738z"/>
		</g>
		<g>
			<path class="st0" d="M7325,3169c93.3-138,169-62.3,31,31c138,93.3,62.3,169-31,31c-93.3,138-169,62.3-31-31
				C7156,3106.7,7231.7,3031,7325,3169z"/>
		</g>
		<g>
			<path class="st2" d="M7650,3538c186.7-276,338-124.7,62,62c276,186.7,124.7,338-62,62c-186.7,276-338,124.7-62-62
				C7312,3413.3,7463.3,3262,7650,3538z"/>
		</g>
		<g>
			<path class="st0" d="M7325,3969c93.3-138,169-62.3,31,31c138,93.3,62.3,169-31,31c-93.3,138-169,62.3-31-31
				C7156,3906.7,7231.7,3831,7325,3969z"/>
		</g>
		<g>
			<path class="st10" d="M7650,4338c186.7-276,338-124.7,62,62c276,186.7,124.7,338-62,62c-186.7,276-338,124.7-62-62
				C7312,4213.3,7463.3,4062,7650,4338z"/>
		</g>
		<g>
			<path class="st0" d="M7325,4769c93.3-138,169-62.3,31,31c138,93.3,62.3,169-31,31c-93.3,138-169,62.3-31-31
				C7156,4706.7,7231.7,4631,7325,4769z"/>
		</g>
		<g>
			<path class="st26" d="M7650,5138c186.7-276,338-124.7,62,62c276,186.7,124.7,338-62,62c-186.7,276-338,124.7-62-62
				C7312,5013.3,7463.3,4862,7650,5138z"/>
		</g>
		<g>
			<path class="st0" d="M7325,5569c93.3-138,169-62.3,31,31c138,93.3,62.3,169-31,31c-93.3,138-169,62.3-31-31
				C7156,5506.7,7231.7,5431,7325,5569z"/>
		</g>
		<g>
			<path class="st20" d="M7650,5938c186.7-276,338-124.7,62,62c276,186.7,124.7,338-62,62c-186.7,276-338,124.7-62-62
				C7312,5813.3,7463.3,5662,7650,5938z"/>
		</g>
		<g>
			<path class="st0" d="M7325,6369c93.3-138,169-62.3,31,31c138,93.3,62.3,169-31,31c-93.3,138-169,62.3-31-31
				C7156,6306.7,7231.7,6231,7325,6369z"/>
		</g>
		<g>
			<path class="st24" d="M7650,6738c186.7-276,338-124.7,62,62c276,186.7,124.7,338-62,62c-186.7,276-338,124.7-62-62
				C7312,6613.3,7463.3,6462,7650,6738z"/>
		</g>
		<g>
			<path class="st0" d="M7325,7169c93.3-138,169-62.3,31,31c138,93.3,62.3,169-31,31c-93.3,138-169,62.3-31-31
				C7156,7106.7,7231.7,7031,7325,7169z"/>
		</g>
		<g>
			<path class="st12" d="M7650,7538c186.7-276,338-124.7,62,62c276,186.7,124.7,338-62,62c-186.7,276-338,124.7-62-62
				C7312,7413.3,7463.3,7262,7650,7538z"/>
		</g>
		<g>
			<path class="st0" d="M7750-31c93.3-138,169-62.3,31,31c138,93.3,62.3,169-31,31c-93.3,138-169,62.3-31-31
				C7581-93.3,7656.7-169,7750-31z"/>
		</g>
		<g>
			<path class="st16" d="M8100,338c186.7-276,338-124.7,62,62c276,186.7,124.7,338-62,62c-186.7,276-338,124.7-62-62
				C7762,213.3,7913.3,62,8100,338z"/>
		</g>
		<g>
			<path class="st0" d="M7750,769c93.3-138,169-62.3,31,31c138,93.3,62.3,169-31,31c-93.3,138-169,62.3-31-31
				C7581,706.7,7656.7,631,7750,769z"/>
		</g>
		<g>
			<path class="st16" d="M8100,1138c186.7-276,338-124.7,62,62c276,186.7,124.7,338-62,62c-186.7,276-338,124.7-62-62
				C7762,1013.3,7913.3,862,8100,1138z"/>
		</g>
		<g>
			<path class="st0" d="M7750,1569c93.3-138,169-62.3,31,31c138,93.3,62.3,169-31,31c-93.3,138-169,62.3-31-31
				C7581,1506.7,7656.7,1431,7750,1569z"/>
		</g>
		<g>
			<path class="st9" d="M8100,1938c186.7-276,338-124.7,62,62c276,186.7,124.7,338-62,62c-186.7,276-338,124.7-62-62
				C7762,1813.3,7913.3,1662,8100,1938z"/>
		</g>
		<g>
			<path class="st0" d="M7750,2369c93.3-138,169-62.3,31,31c138,93.3,62.3,169-31,31c-93.3,138-169,62.3-31-31
				C7581,2306.7,7656.7,2231,7750,2369z"/>
		</g>
		<g>
			<path class="st13" d="M8100,2738c186.7-276,338-124.7,62,62c276,186.7,124.7,338-62,62c-186.7,276-338,124.7-62-62
				C7762,2613.3,7913.3,2462,8100,2738z"/>
		</g>
		<g>
			<path class="st0" d="M7750,3169c93.3-138,169-62.3,31,31c138,93.3,62.3,169-31,31c-93.3,138-169,62.3-31-31
				C7581,3106.7,7656.7,3031,7750,3169z"/>
		</g>
		<g>
			<path class="st20" d="M8100,3538c186.7-276,338-124.7,62,62c276,186.7,124.7,338-62,62c-186.7,276-338,124.7-62-62
				C7762,3413.3,7913.3,3262,8100,3538z"/>
		</g>
		<g>
			<path class="st0" d="M7750,3969c93.3-138,169-62.3,31,31c138,93.3,62.3,169-31,31c-93.3,138-169,62.3-31-31
				C7581,3906.7,7656.7,3831,7750,3969z"/>
		</g>
		<g>
			<path class="st3" d="M8100,4338c186.7-276,338-124.7,62,62c276,186.7,124.7,338-62,62c-186.7,276-338,124.7-62-62
				C7762,4213.3,7913.3,4062,8100,4338z"/>
		</g>
		<g>
			<path class="st0" d="M7750,4769c93.3-138,169-62.3,31,31c138,93.3,62.3,169-31,31c-93.3,138-169,62.3-31-31
				C7581,4706.7,7656.7,4631,7750,4769z"/>
		</g>
		<g>
			<path class="st28" d="M8100,5138c186.7-276,338-124.7,62,62c276,186.7,124.7,338-62,62c-186.7,276-338,124.7-62-62
				C7762,5013.3,7913.3,4862,8100,5138z"/>
		</g>
		<g>
			<path class="st0" d="M7750,5569c93.3-138,169-62.3,31,31c138,93.3,62.3,169-31,31c-93.3,138-169,62.3-31-31
				C7581,5506.7,7656.7,5431,7750,5569z"/>
		</g>
		<g>
			<path class="st12" d="M8100,5938c186.7-276,338-124.7,62,62c276,186.7,124.7,338-62,62c-186.7,276-338,124.7-62-62
				C7762,5813.3,7913.3,5662,8100,5938z"/>
		</g>
		<g>
			<path class="st0" d="M7750,6369c93.3-138,169-62.3,31,31c138,93.3,62.3,169-31,31c-93.3,138-169,62.3-31-31
				C7581,6306.7,7656.7,6231,7750,6369z"/>
		</g>
		<g>
			<path class="st13" d="M8100,6738c186.7-276,338-124.7,62,62c276,186.7,124.7,338-62,62c-186.7,276-338,124.7-62-62
				C7762,6613.3,7913.3,6462,8100,6738z"/>
		</g>
		<g>
			<path class="st0" d="M7750,7169c93.3-138,169-62.3,31,31c138,93.3,62.3,169-31,31c-93.3,138-169,62.3-31-31
				C7581,7106.7,7656.7,7031,7750,7169z"/>
		</g>
		<g>
			<path class="st16" d="M8100,7538c186.7-276,338-124.7,62,62c276,186.7,124.7,338-62,62c-186.7,276-338,124.7-62-62
				C7762,7413.3,7913.3,7262,8100,7538z"/>
		</g>
		<g>
			<path class="st0" d="M8175-31c93.3-138,169-62.3,31,31c138,93.3,62.3,169-31,31c-93.3,138-169,62.3-31-31
				C8006-93.3,8081.7-169,8175-31z"/>
		</g>
		<g>
			<path class="st11" d="M8550,338c186.7-276,338-124.7,62,62c276,186.7,124.7,338-62,62c-186.7,276-338,124.7-62-62
				C8212,213.3,8363.3,62,8550,338z"/>
		</g>
		<g>
			<path class="st0" d="M8175,769c93.3-138,169-62.3,31,31c138,93.3,62.3,169-31,31c-93.3,138-169,62.3-31-31
				C8006,706.7,8081.7,631,8175,769z"/>
		</g>
		<g>
			<path class="st18" d="M8550,1138c186.7-276,338-124.7,62,62c276,186.7,124.7,338-62,62c-186.7,276-338,124.7-62-62
				C8212,1013.3,8363.3,862,8550,1138z"/>
		</g>
		<g>
			<path class="st0" d="M8175,1569c93.3-138,169-62.3,31,31c138,93.3,62.3,169-31,31c-93.3,138-169,62.3-31-31
				C8006,1506.7,8081.7,1431,8175,1569z"/>
		</g>
		<g>
			<path class="st7" d="M8550,1938c186.7-276,338-124.7,62,62c276,186.7,124.7,338-62,62c-186.7,276-338,124.7-62-62
				C8212,1813.3,8363.3,1662,8550,1938z"/>
		</g>
		<g>
			<path class="st0" d="M8175,2369c93.3-138,169-62.3,31,31c138,93.3,62.3,169-31,31c-93.3,138-169,62.3-31-31
				C8006,2306.7,8081.7,2231,8175,2369z"/>
		</g>
		<g>
			<path class="st1" d="M8550,2738c186.7-276,338-124.7,62,62c276,186.7,124.7,338-62,62c-186.7,276-338,124.7-62-62
				C8212,2613.3,8363.3,2462,8550,2738z"/>
		</g>
		<g>
			<path class="st0" d="M8175,3169c93.3-138,169-62.3,31,31c138,93.3,62.3,169-31,31c-93.3,138-169,62.3-31-31
				C8006,3106.7,8081.7,3031,8175,3169z"/>
		</g>
		<g>
			<path class="st8" d="M8550,3538c186.7-276,338-124.7,62,62c276,186.7,124.7,338-62,62c-186.7,276-338,124.7-62-62
				C8212,3413.3,8363.3,3262,8550,3538z"/>
		</g>
		<g>
			<path class="st0" d="M8175,3969c93.3-138,169-62.3,31,31c138,93.3,62.3,169-31,31c-93.3,138-169,62.3-31-31
				C8006,3906.7,8081.7,3831,8175,3969z"/>
		</g>
		<g>
			<path class="st25" d="M8550,4338c186.7-276,338-124.7,62,62c276,186.7,124.7,338-62,62c-186.7,276-338,124.7-62-62
				C8212,4213.3,8363.3,4062,8550,4338z"/>
		</g>
		<g>
			<path class="st0" d="M8175,4769c93.3-138,169-62.3,31,31c138,93.3,62.3,169-31,31c-93.3,138-169,62.3-31-31
				C8006,4706.7,8081.7,4631,8175,4769z"/>
		</g>
		<g>
			<path class="st28" d="M8550,5138c186.7-276,338-124.7,62,62c276,186.7,124.7,338-62,62c-186.7,276-338,124.7-62-62
				C8212,5013.3,8363.3,4862,8550,5138z"/>
		</g>
		<g>
			<path class="st0" d="M8175,5569c93.3-138,169-62.3,31,31c138,93.3,62.3,169-31,31c-93.3,138-169,62.3-31-31
				C8006,5506.7,8081.7,5431,8175,5569z"/>
		</g>
		<g>
			<path class="st5" d="M8550,5938c186.7-276,338-124.7,62,62c276,186.7,124.7,338-62,62c-186.7,276-338,124.7-62-62
				C8212,5813.3,8363.3,5662,8550,5938z"/>
		</g>
		<g>
			<path class="st0" d="M8175,6369c93.3-138,169-62.3,31,31c138,93.3,62.3,169-31,31c-93.3,138-169,62.3-31-31
				C8006,6306.7,8081.7,6231,8175,6369z"/>
		</g>
		<g>
			<path class="st23" d="M8550,6738c186.7-276,338-124.7,62,62c276,186.7,124.7,338-62,62c-186.7,276-338,124.7-62-62
				C8212,6613.3,8363.3,6462,8550,6738z"/>
		</g>
		<g>
			<path class="st0" d="M8175,7169c93.3-138,169-62.3,31,31c138,93.3,62.3,169-31,31c-93.3,138-169,62.3-31-31
				C8006,7106.7,8081.7,7031,8175,7169z"/>
		</g>
		<g>
			<path class="st22" d="M8550,7538c186.7-276,338-124.7,62,62c276,186.7,124.7,338-62,62c-186.7,276-338,124.7-62-62
				C8212,7413.3,8363.3,7262,8550,7538z"/>
		</g>
	</g>
</g>
</svg>
